<svg width="34" height="34" viewBox="0 0 34 34" fill="none" xmlns="http://www.w3.org/2000/svg">
<circle cx="17" cy="17" r="17" fill="white"/>
<path d="M16.423 22.6424C16.3297 22.6424 16.2504 22.6098 16.185 22.5444C16.1197 22.4884 16.087 22.4091 16.087 22.3064V21.3264C15.415 21.2611 14.8364 21.1024 14.351 20.8504C13.875 20.5891 13.511 20.2718 13.259 19.8984C13.0164 19.5158 12.8857 19.1098 12.867 18.6804C12.867 18.5964 12.895 18.5264 12.951 18.4704C13.0164 18.4144 13.091 18.3864 13.175 18.3864H14.421C14.5237 18.3864 14.603 18.4098 14.659 18.4564C14.7244 18.4938 14.785 18.5591 14.841 18.6524C14.9437 18.9698 15.1584 19.2358 15.485 19.4504C15.821 19.6651 16.283 19.7724 16.871 19.7724C17.5244 19.7724 18.019 19.6651 18.355 19.4504C18.691 19.2264 18.859 18.9184 18.859 18.5264C18.859 18.2651 18.775 18.0504 18.607 17.8824C18.439 17.7144 18.1824 17.5698 17.837 17.4484C17.4917 17.3178 16.983 17.1684 16.311 17.0004C15.2097 16.7391 14.4024 16.3938 13.889 15.9644C13.385 15.5258 13.133 14.9051 13.133 14.1024C13.133 13.3744 13.3944 12.7631 13.917 12.2684C14.449 11.7644 15.1724 11.4564 16.087 11.3444V10.3784C16.087 10.2758 16.1197 10.1964 16.185 10.1404C16.2504 10.0751 16.3297 10.0424 16.423 10.0424H17.277C17.3704 10.0424 17.4497 10.0751 17.515 10.1404C17.5804 10.2058 17.613 10.2851 17.613 10.3784V11.3724C18.2197 11.4564 18.7377 11.6384 19.167 11.9184C19.6057 12.1891 19.937 12.5064 20.161 12.8704C20.3944 13.2344 20.5204 13.5891 20.539 13.9344C20.539 14.0184 20.511 14.0884 20.455 14.1444C20.399 14.2004 20.329 14.2284 20.245 14.2284H18.943C18.7377 14.2284 18.5977 14.1398 18.523 13.9624C18.4764 13.6638 18.2944 13.4164 17.977 13.2204C17.6597 13.0151 17.263 12.9124 16.787 12.9124C16.2737 12.9124 15.8677 13.0104 15.569 13.2064C15.2704 13.4024 15.121 13.6871 15.121 14.0604C15.121 14.3218 15.1957 14.5364 15.345 14.7044C15.4944 14.8724 15.7277 15.0218 16.045 15.1524C16.3717 15.2831 16.8384 15.4278 17.445 15.5864C18.2664 15.7731 18.9197 15.9831 19.405 16.2164C19.8997 16.4498 20.2637 16.7438 20.497 17.0984C20.7304 17.4531 20.847 17.9058 20.847 18.4564C20.847 19.2591 20.5577 19.9171 19.979 20.4304C19.4004 20.9344 18.6117 21.2378 17.613 21.3404V22.3064C17.613 22.3998 17.5804 22.4791 17.515 22.5444C17.4497 22.6098 17.3704 22.6424 17.277 22.6424H16.423Z" fill="#FF7C21"/>
</svg>
