<svg width="186" height="64" viewBox="0 0 186 64" fill="none" xmlns="http://www.w3.org/2000/svg">
<path d="M11.13 31.14C9.42667 31.14 7.89833 30.72 6.545 29.88C5.19167 29.0167 4.11833 27.8617 3.325 26.415C2.555 24.945 2.17 23.2883 2.17 21.445C2.17 19.6017 2.59 17.945 3.43 16.475C4.29333 15.005 5.44833 13.85 6.895 13.01C8.365 12.1467 10.01 11.715 11.83 11.715C13.65 11.715 15.2833 12.1467 16.73 13.01C18.1767 13.85 19.32 15.005 20.16 16.475C21.0233 17.945 21.455 19.6017 21.455 21.445V29.25C21.455 29.7633 21.28 30.195 20.93 30.545C20.6033 30.8717 20.1833 31.035 19.67 31.035C19.1567 31.035 18.725 30.8717 18.375 30.545C18.0483 30.195 17.885 29.7633 17.885 29.25V27.955C17.0683 28.935 16.0767 29.7167 14.91 30.3C13.7667 30.86 12.5067 31.14 11.13 31.14ZM11.83 27.99C13.02 27.99 14.0817 27.71 15.015 27.15C15.9483 26.5667 16.6833 25.785 17.22 24.805C17.7567 23.8017 18.025 22.6817 18.025 21.445C18.025 20.185 17.7567 19.065 17.22 18.085C16.6833 17.0817 15.9483 16.3 15.015 15.74C14.0817 15.1567 13.02 14.865 11.83 14.865C10.6633 14.865 9.60167 15.1567 8.645 15.74C7.71167 16.3 6.965 17.0817 6.405 18.085C5.86833 19.065 5.6 20.185 5.6 21.445C5.6 22.6817 5.86833 23.8017 6.405 24.805C6.965 25.785 7.71167 26.5667 8.645 27.15C9.60167 27.71 10.6633 27.99 11.83 27.99ZM28.5532 39.19C28.0398 39.19 27.6082 39.015 27.2582 38.665C26.9315 38.3383 26.7682 37.9183 26.7682 37.405V21.445C26.7915 19.6017 27.2232 17.945 28.0632 16.475C28.9032 15.005 30.0465 13.85 31.4932 13.01C32.9398 12.1467 34.5732 11.715 36.3932 11.715C38.2365 11.715 39.8815 12.1467 41.3282 13.01C42.7748 13.85 43.9182 15.005 44.7582 16.475C45.6215 17.945 46.0532 19.6017 46.0532 21.445C46.0532 23.2883 45.6565 24.945 44.8632 26.415C44.0932 27.8617 43.0315 29.0167 41.6782 29.88C40.3248 30.72 38.7965 31.14 37.0932 31.14C35.7165 31.14 34.4448 30.86 33.2782 30.3C32.1348 29.7167 31.1548 28.935 30.3382 27.955V37.405C30.3382 37.9183 30.1748 38.3383 29.8482 38.665C29.5215 39.015 29.0898 39.19 28.5532 39.19ZM36.3932 27.99C37.5832 27.99 38.6448 27.71 39.5782 27.15C40.5115 26.5667 41.2465 25.785 41.7832 24.805C42.3432 23.8017 42.6232 22.6817 42.6232 21.445C42.6232 20.185 42.3432 19.065 41.7832 18.085C41.2465 17.0817 40.5115 16.3 39.5782 15.74C38.6448 15.1567 37.5832 14.865 36.3932 14.865C35.2265 14.865 34.1648 15.1567 33.2082 15.74C32.2748 16.3 31.5398 17.0817 31.0032 18.085C30.4665 19.065 30.1982 20.185 30.1982 21.445C30.1982 22.6817 30.4665 23.8017 31.0032 24.805C31.5398 25.785 32.2748 26.5667 33.2082 27.15C34.1648 27.71 35.2265 27.99 36.3932 27.99ZM60.3725 31.14C58.4359 31.14 56.7092 30.7317 55.1925 29.915C53.6992 29.075 52.5209 27.9317 51.6575 26.485C50.8175 25.015 50.3975 23.335 50.3975 21.445C50.3975 19.5317 50.7942 17.8517 51.5875 16.405C52.4042 14.935 53.5242 13.7917 54.9475 12.975C56.3709 12.135 58.0042 11.715 59.8475 11.715C61.6675 11.715 63.2309 12.1233 64.5375 12.94C65.8442 13.7333 66.8359 14.8417 67.5125 16.265C68.2125 17.665 68.5625 19.2867 68.5625 21.13C68.5625 21.5733 68.4109 21.9467 68.1075 22.25C67.8042 22.53 67.4192 22.67 66.9525 22.67H53.6525C53.9092 24.28 54.6442 25.5983 55.8575 26.625C57.0942 27.6283 58.5992 28.13 60.3725 28.13C61.0959 28.13 61.8309 28.0017 62.5775 27.745C63.3475 27.465 63.9659 27.15 64.4325 26.8C64.7825 26.5433 65.1559 26.415 65.5525 26.415C65.9725 26.3917 66.3342 26.5083 66.6375 26.765C67.0342 27.115 67.2442 27.5 67.2675 27.92C67.2909 28.34 67.1042 28.7017 66.7075 29.005C65.9142 29.635 64.9225 30.1483 63.7325 30.545C62.5659 30.9417 61.4459 31.14 60.3725 31.14ZM59.8475 14.725C58.1209 14.725 56.7325 15.2033 55.6825 16.16C54.6325 17.1167 53.9675 18.3533 53.6875 19.87H65.3425C65.1325 18.3767 64.5609 17.1517 63.6275 16.195C62.6942 15.215 61.4342 14.725 59.8475 14.725ZM72.1263 31C71.6596 31 71.2863 30.86 71.0063 30.58C70.7496 30.2767 70.6213 29.915 70.6213 29.495C70.6213 29.075 70.7846 28.655 71.1113 28.235L76.5363 21.445L70.7613 14.62C70.4579 14.2467 70.2946 13.85 70.2713 13.43C70.2479 12.9867 70.3646 12.6133 70.6213 12.31C70.8779 12.0067 71.2629 11.855 71.7763 11.855C72.3363 11.855 72.7796 12.0533 73.1063 12.45L78.8463 19.31L83.9913 12.45C84.1779 12.2167 84.3763 12.065 84.5863 11.995C84.7963 11.9017 85.0296 11.855 85.2863 11.855C85.7996 11.855 86.1846 12.0183 86.4413 12.345C86.6979 12.6483 86.8146 13.0217 86.7913 13.465C86.7913 13.9083 86.6279 14.34 86.3013 14.76L81.0163 21.655L86.5812 28.305C86.9313 28.725 87.0946 29.145 87.0713 29.565C87.0713 29.9617 86.9196 30.3 86.6163 30.58C86.3363 30.86 85.9629 31 85.4963 31C85.2629 31 85.0413 30.965 84.8313 30.895C84.6213 30.825 84.4229 30.6733 84.2363 30.44L78.6713 23.79L73.3863 30.44C73.0363 30.8133 72.6163 31 72.1263 31ZM93.3237 39.19C92.8103 39.19 92.3787 39.015 92.0287 38.665C91.702 38.3383 91.5387 37.9183 91.5387 37.405V21.445C91.562 19.6017 91.9937 17.945 92.8337 16.475C93.6737 15.005 94.817 13.85 96.2637 13.01C97.7103 12.1467 99.3437 11.715 101.164 11.715C103.007 11.715 104.652 12.1467 106.099 13.01C107.545 13.85 108.689 15.005 109.529 16.475C110.392 17.945 110.824 19.6017 110.824 21.445C110.824 23.2883 110.427 24.945 109.634 26.415C108.864 27.8617 107.802 29.0167 106.449 29.88C105.095 30.72 103.567 31.14 101.864 31.14C100.487 31.14 99.2153 30.86 98.0487 30.3C96.9053 29.7167 95.9253 28.935 95.1087 27.955V37.405C95.1087 37.9183 94.9453 38.3383 94.6187 38.665C94.292 39.015 93.8603 39.19 93.3237 39.19ZM101.164 27.99C102.354 27.99 103.415 27.71 104.349 27.15C105.282 26.5667 106.017 25.785 106.554 24.805C107.114 23.8017 107.394 22.6817 107.394 21.445C107.394 20.185 107.114 19.065 106.554 18.085C106.017 17.0817 105.282 16.3 104.349 15.74C103.415 15.1567 102.354 14.865 101.164 14.865C99.997 14.865 98.9353 15.1567 97.9787 15.74C97.0453 16.3 96.3103 17.0817 95.7737 18.085C95.237 19.065 94.9687 20.185 94.9687 21.445C94.9687 22.6817 95.237 23.8017 95.7737 24.805C96.3103 25.785 97.0453 26.5667 97.9787 27.15C98.9353 27.71 99.997 27.99 101.164 27.99ZM118.283 31C117.77 31 117.338 30.8367 116.988 30.51C116.661 30.16 116.498 29.7283 116.498 29.215V13.64C116.498 13.1033 116.661 12.6717 116.988 12.345C117.338 12.0183 117.77 11.855 118.283 11.855C118.82 11.855 119.251 12.0183 119.578 12.345C119.905 12.6717 120.068 13.1033 120.068 13.64V29.215C120.068 29.7283 119.905 30.16 119.578 30.51C119.251 30.8367 118.82 31 118.283 31ZM118.283 8.74C117.653 8.74 117.105 8.51833 116.638 8.075C116.195 7.60833 115.973 7.06 115.973 6.43C115.973 5.8 116.195 5.26333 116.638 4.82C117.105 4.35333 117.653 4.12 118.283 4.12C118.913 4.12 119.45 4.35333 119.893 4.82C120.36 5.26333 120.593 5.8 120.593 6.43C120.593 7.06 120.36 7.60833 119.893 8.075C119.45 8.51833 118.913 8.74 118.283 8.74ZM127.48 31C126.383 31 125.835 30.4517 125.835 29.355C125.835 28.8883 125.94 28.515 126.15 28.235L136.055 15.145H127.13C126.033 15.145 125.485 14.5967 125.485 13.5C125.485 12.4033 126.033 11.855 127.13 11.855H139.065C140.161 11.855 140.71 12.4033 140.71 13.5C140.71 13.9667 140.605 14.34 140.395 14.62L130.525 27.71H139.415C140.511 27.71 141.06 28.2583 141.06 29.355C141.06 30.4517 140.511 31 139.415 31H127.48ZM146.381 31C145.284 31 144.736 30.4517 144.736 29.355C144.736 28.8883 144.841 28.515 145.051 28.235L154.956 15.145H146.031C144.934 15.145 144.386 14.5967 144.386 13.5C144.386 12.4033 144.934 11.855 146.031 11.855H157.966C159.063 11.855 159.611 12.4033 159.611 13.5C159.611 13.9667 159.506 14.34 159.296 14.62L149.426 27.71H158.316C159.413 27.71 159.961 28.2583 159.961 29.355C159.961 30.4517 159.413 31 158.316 31H146.381ZM171.809 31.14C170.105 31.14 168.577 30.72 167.224 29.88C165.87 29.0167 164.797 27.8617 164.004 26.415C163.234 24.945 162.849 23.2883 162.849 21.445C162.849 19.6017 163.269 17.945 164.109 16.475C164.972 15.005 166.127 13.85 167.574 13.01C169.044 12.1467 170.689 11.715 172.509 11.715C174.329 11.715 175.962 12.1467 177.409 13.01C178.855 13.85 179.999 15.005 180.839 16.475C181.702 17.945 182.134 19.6017 182.134 21.445V29.25C182.134 29.7633 181.959 30.195 181.609 30.545C181.282 30.8717 180.862 31.035 180.349 31.035C179.835 31.035 179.404 30.8717 179.054 30.545C178.727 30.195 178.564 29.7633 178.564 29.25V27.955C177.747 28.935 176.755 29.7167 175.589 30.3C174.445 30.86 173.185 31.14 171.809 31.14ZM172.509 27.99C173.699 27.99 174.76 27.71 175.694 27.15C176.627 26.5667 177.362 25.785 177.899 24.805C178.435 23.8017 178.704 22.6817 178.704 21.445C178.704 20.185 178.435 19.065 177.899 18.085C177.362 17.0817 176.627 16.3 175.694 15.74C174.76 15.1567 173.699 14.865 172.509 14.865C171.342 14.865 170.28 15.1567 169.324 15.74C168.39 16.3 167.644 17.0817 167.084 18.085C166.547 19.065 166.279 20.185 166.279 21.445C166.279 22.6817 166.547 23.8017 167.084 24.805C167.644 25.785 168.39 26.5667 169.324 27.15C170.28 27.71 171.342 27.99 172.509 27.99Z" fill="black"/>
<path d="M6.545 29.88L6.27607 30.3016L6.28132 30.3048L6.545 29.88ZM3.325 26.415L2.882 26.647L2.88659 26.6554L3.325 26.415ZM3.43 16.475L2.99883 16.2218L2.99588 16.2269L3.43 16.475ZM6.895 13.01L7.14607 13.4424L7.14821 13.4411L6.895 13.01ZM16.73 13.01L16.4738 13.4394L16.4789 13.4424L16.73 13.01ZM20.16 16.475L19.7258 16.7231L19.7289 16.7282L20.16 16.475ZM20.93 30.545L21.2836 30.8986L20.93 30.545ZM18.375 30.545L18.0095 30.8862L18.0212 30.8988L18.0338 30.9105L18.375 30.545ZM17.885 27.955H18.385V26.574L17.5009 27.6349L17.885 27.955ZM14.91 30.3L15.1299 30.749L15.1336 30.7472L14.91 30.3ZM15.015 27.15L15.2723 27.5788L15.28 27.574L15.015 27.15ZM17.22 24.805L17.6586 25.0452L17.6609 25.0408L17.22 24.805ZM17.22 18.085L16.7791 18.3208L16.7815 18.3252L17.22 18.085ZM15.015 15.74L14.75 16.1641L14.7578 16.1687L15.015 15.74ZM8.645 15.74L8.90226 16.1688L8.9053 16.1669L8.645 15.74ZM6.405 18.085L5.96839 17.8413L5.96645 17.8448L6.405 18.085ZM6.405 24.805L5.96394 25.0409L5.97088 25.0531L6.405 24.805ZM8.645 27.15L8.38 27.574L8.38615 27.5778L8.39241 27.5815L8.645 27.15ZM11.13 30.64C9.51311 30.64 8.07731 30.2426 6.80868 29.4552L6.28132 30.3048C7.71936 31.1974 9.34022 31.64 11.13 31.64V30.64ZM6.81391 29.4585C5.53341 28.6416 4.51752 27.5497 3.76341 26.1746L2.88659 26.6554C3.71915 28.1736 4.84992 29.3917 6.27609 30.3015L6.81391 29.4585ZM3.76792 26.183C3.03942 24.7922 2.67 23.2166 2.67 21.445H1.67C1.67 23.36 2.07058 25.0978 2.88208 26.647L3.76792 26.183ZM2.67 21.445C2.67 19.6807 3.07107 18.1109 3.86412 16.7231L2.99588 16.2269C2.10893 17.7791 1.67 19.5226 1.67 21.445H2.67ZM3.86114 16.7282C4.68175 15.331 5.77532 14.2383 7.14607 13.4424L6.64393 12.5776C5.12134 13.4617 3.90492 14.679 2.99886 16.2218L3.86114 16.7282ZM7.14821 13.4411C8.53623 12.626 10.0928 12.215 11.83 12.215V11.215C9.92721 11.215 8.19377 11.6674 6.64179 12.5789L7.14821 13.4411ZM11.83 12.215C13.5673 12.215 15.1108 12.626 16.4738 13.4394L16.9862 12.5806C15.4559 11.6674 13.7327 11.215 11.83 11.215V12.215ZM16.4789 13.4424C17.8484 14.2376 18.929 15.3286 19.7259 16.7231L20.5941 16.2269C19.711 14.6814 18.5049 13.4624 16.9811 12.5776L16.4789 13.4424ZM19.7289 16.7282C20.5435 18.1152 20.955 19.6832 20.955 21.445H21.955C21.955 19.5201 21.5032 17.7748 20.5911 16.2218L19.7289 16.7282ZM20.955 21.445V29.25H21.955V21.445H20.955ZM20.955 29.25C20.955 29.6362 20.8289 29.939 20.5764 30.1914L21.2836 30.8986C21.7311 30.451 21.955 29.8904 21.955 29.25H20.955ZM20.5764 30.1914C20.3544 30.4135 20.0669 30.535 19.67 30.535V31.535C20.2998 31.535 20.8523 31.3298 21.2836 30.8986L20.5764 30.1914ZM19.67 30.535C19.2733 30.535 18.9665 30.4131 18.7162 30.1795L18.0338 30.9105C18.4835 31.3302 19.04 31.535 19.67 31.535V30.535ZM18.7405 30.2038C18.5069 29.9535 18.385 29.6467 18.385 29.25H17.385C17.385 29.88 17.5898 30.4365 18.0095 30.8862L18.7405 30.2038ZM18.385 29.25V27.955H17.385V29.25H18.385ZM17.5009 27.6349C16.7294 28.5607 15.7928 29.2996 14.6864 29.8528L15.1336 30.7472C16.3605 30.1337 17.4073 29.3093 18.2691 28.2751L17.5009 27.6349ZM14.6901 29.851C13.6207 30.3748 12.4367 30.64 11.13 30.64V31.64C12.5766 31.64 13.9127 31.3452 15.1299 30.749L14.6901 29.851ZM11.83 28.49C13.1019 28.49 14.254 28.1897 15.2722 27.5787L14.7578 26.7213C13.9093 27.2303 12.9381 27.49 11.83 27.49V28.49ZM15.28 27.574C16.2871 26.9445 17.0814 26.0991 17.6585 25.0452L16.7815 24.5648C16.2853 25.4709 15.6095 26.1888 14.75 26.726L15.28 27.574ZM17.6609 25.0408C18.2397 23.9588 18.525 22.7566 18.525 21.445H17.525C17.525 22.6067 17.2737 23.6446 16.7791 24.5692L17.6609 25.0408ZM18.525 21.445C18.525 20.1119 18.2405 18.9075 17.6585 17.8448L16.7815 18.3252C17.2729 19.2225 17.525 20.2581 17.525 21.445H18.525ZM17.6609 17.8492C17.0836 16.7699 16.2867 15.9199 15.2722 15.3113L14.7578 16.1687C15.61 16.6801 16.2831 17.3934 16.7791 18.3208L17.6609 17.8492ZM15.28 15.316C14.2607 14.679 13.1058 14.365 11.83 14.365V15.365C12.9342 15.365 13.9026 15.6344 14.75 16.164L15.28 15.316ZM11.83 14.365C10.5755 14.365 9.42309 14.6799 8.3847 15.3131L8.9053 16.1669C9.78024 15.6334 10.7512 15.365 11.83 15.365V14.365ZM8.38775 15.3113C7.37528 15.9187 6.56853 16.7661 5.9684 17.8413L6.8416 18.3287C7.36147 17.3972 8.04806 16.6813 8.90225 16.1687L8.38775 15.3113ZM5.96645 17.8448C5.38454 18.9075 5.1 20.1119 5.1 21.445H6.1C6.1 20.2581 6.35212 19.2225 6.84355 18.3252L5.96645 17.8448ZM5.1 21.445C5.1 22.7566 5.38533 23.9588 5.96411 25.0408L6.84589 24.5692C6.35134 23.6446 6.1 22.6067 6.1 21.445H5.1ZM5.97088 25.0531C6.57077 26.1029 7.37479 26.9457 8.38 27.574L8.91 26.726C8.04854 26.1876 7.35923 25.4671 6.83912 24.5569L5.97088 25.0531ZM8.39241 27.5815C9.42978 28.1887 10.5794 28.49 11.83 28.49V27.49C10.7473 27.49 9.77356 27.2313 8.89759 26.7185L8.39241 27.5815ZM27.2582 38.665L26.9046 39.0186L27.2582 38.665ZM26.7682 21.445L26.2682 21.4387V21.445H26.7682ZM31.4932 13.01L31.7442 13.4424L31.7494 13.4394L31.4932 13.01ZM41.3282 13.01L41.0719 13.4394L41.0771 13.4424L41.3282 13.01ZM44.7582 16.475L44.324 16.7231L44.327 16.7282L44.7582 16.475ZM44.8632 26.415L44.4231 26.1775L44.4218 26.1801L44.8632 26.415ZM41.6782 29.88L41.9419 30.3049L41.9471 30.3015L41.6782 29.88ZM33.2782 30.3L33.0509 30.7455L33.0618 30.7508L33.2782 30.3ZM30.3382 27.955L30.7223 27.6349L29.8382 26.574V27.955H30.3382ZM29.8482 38.665L29.4946 38.3114L29.4885 38.3175L29.4826 38.3238L29.8482 38.665ZM39.5782 27.15L39.8355 27.5788L39.8432 27.574L39.5782 27.15ZM41.7832 24.805L41.3466 24.5613L41.3446 24.5648L41.7832 24.805ZM41.7832 18.085L41.3421 18.3209L41.349 18.3331L41.7832 18.085ZM39.5782 15.74L39.3131 16.1641L39.3209 16.1687L39.5782 15.74ZM33.2082 15.74L33.4654 16.1688L33.4685 16.1669L33.2082 15.74ZM31.0032 18.085L31.4417 18.3252L31.4441 18.3208L31.0032 18.085ZM31.0032 24.805L30.5623 25.0408L30.5646 25.0452L31.0032 24.805ZM33.2082 27.15L32.9432 27.574L32.9493 27.5778L32.9556 27.5815L33.2082 27.15ZM28.5532 38.69C28.1669 38.69 27.8641 38.5639 27.6117 38.3114L26.9046 39.0186C27.3522 39.4661 27.9127 39.69 28.5532 39.69V38.69ZM27.6117 38.3114C27.3897 38.0894 27.2682 37.8019 27.2682 37.405H26.2682C26.2682 38.0348 26.4733 38.5873 26.9046 39.0186L27.6117 38.3114ZM27.2682 37.405V21.445H26.2682V37.405H27.2682ZM27.2681 21.4513C27.2905 19.6851 27.7031 18.1129 28.4973 16.7231L27.629 16.2269C26.7433 17.7771 26.2925 19.5182 26.2682 21.4387L27.2681 21.4513ZM28.4973 16.7231C29.2941 15.3286 30.3747 14.2376 31.7442 13.4424L31.2421 12.5776C29.7183 13.4624 28.5122 14.6814 27.629 16.2269L28.4973 16.7231ZM31.7494 13.4394C33.1124 12.626 34.6559 12.215 36.3932 12.215V11.215C34.4904 11.215 32.7673 11.6674 31.2369 12.5806L31.7494 13.4394ZM36.3932 12.215C38.155 12.215 39.7099 12.6266 41.0719 13.4394L41.5844 12.5806C40.0531 11.6668 38.318 11.215 36.3932 11.215V12.215ZM41.0771 13.4424C42.4466 14.2376 43.5272 15.3286 44.324 16.7231L45.1923 16.2269C44.3091 14.6814 43.1031 13.4624 41.5792 12.5776L41.0771 13.4424ZM44.327 16.7282C45.1416 18.1152 45.5532 19.6832 45.5532 21.445H46.5532C46.5532 19.5201 46.1014 17.7748 45.1893 16.2218L44.327 16.7282ZM45.5532 21.445C45.5532 23.2142 45.1732 24.7878 44.4232 26.1775L45.3032 26.6525C46.1398 25.1022 46.5532 23.3625 46.5532 21.445H45.5532ZM44.4218 26.1801C43.6914 27.5524 42.6884 28.6425 41.4093 29.4585L41.9471 30.3015C43.3746 29.3909 44.495 28.1709 45.3045 26.6499L44.4218 26.1801ZM41.4145 29.4552C40.1459 30.2426 38.7101 30.64 37.0932 30.64V31.64C38.8829 31.64 40.5038 31.1974 41.9418 30.3048L41.4145 29.4552ZM37.0932 30.64C35.7865 30.64 34.5894 30.3748 33.4945 29.8492L33.0618 30.7508C34.3003 31.3452 35.6465 31.64 37.0932 31.64V30.64ZM33.5054 29.8546C32.4219 29.3018 31.4954 28.5626 30.7223 27.6349L29.9541 28.2751C30.8143 29.3074 31.8478 30.1315 33.0509 30.7454L33.5054 29.8546ZM29.8382 27.955V37.405H30.8382V27.955H29.8382ZM29.8382 37.405C29.8382 37.8019 29.7167 38.0894 29.4946 38.3114L30.2017 39.0186C30.633 38.5873 30.8382 38.0348 30.8382 37.405H29.8382ZM29.4826 38.3238C29.2625 38.5597 28.9698 38.69 28.5532 38.69V39.69C29.2099 39.69 29.7805 39.4703 30.2137 39.0062L29.4826 38.3238ZM36.3932 28.49C37.6651 28.49 38.8172 28.1897 39.8354 27.5787L39.3209 26.7213C38.4725 27.2303 37.5013 27.49 36.3932 27.49V28.49ZM39.8432 27.574C40.8503 26.9445 41.6446 26.0991 42.2217 25.0452L41.3446 24.5648C40.8484 25.4709 40.1727 26.1888 39.3132 26.726L39.8432 27.574ZM42.2198 25.0487C42.8245 23.9652 43.1232 22.7603 43.1232 21.445H42.1232C42.1232 22.6031 41.8618 23.6381 41.3466 24.5613L42.2198 25.0487ZM43.1232 21.445C43.1232 20.1083 42.8253 18.901 42.2173 17.8369L41.349 18.3331C41.861 19.229 42.1232 20.2617 42.1232 21.445H43.1232ZM42.2241 17.8492C41.6468 16.7699 40.8499 15.9199 39.8354 15.3113L39.3209 16.1687C40.1731 16.6801 40.8462 17.3934 41.3423 18.3208L42.2241 17.8492ZM39.8432 15.316C38.8239 14.679 37.669 14.365 36.3932 14.365V15.365C37.4974 15.365 38.4657 15.6344 39.3132 16.164L39.8432 15.316ZM36.3932 14.365C35.1386 14.365 33.9863 14.6799 32.9479 15.3131L33.4685 16.1669C34.3434 15.6334 35.3144 15.365 36.3932 15.365V14.365ZM32.9509 15.3113C31.9365 15.9199 31.1396 16.7699 30.5623 17.8492L31.4441 18.3208C31.9401 17.3934 32.6132 16.6801 33.4654 16.1687L32.9509 15.3113ZM30.5646 17.8448C29.9827 18.9075 29.6982 20.1119 29.6982 21.445H30.6982C30.6982 20.2581 30.9503 19.2225 31.4417 18.3252L30.5646 17.8448ZM29.6982 21.445C29.6982 22.7566 29.9835 23.9588 30.5623 25.0408L31.4441 24.5692C30.9495 23.6446 30.6982 22.6067 30.6982 21.445H29.6982ZM30.5646 25.0452C31.1418 26.0991 31.936 26.9445 32.9432 27.574L33.4732 26.726C32.6136 26.1888 31.9379 25.4709 31.4417 24.5648L30.5646 25.0452ZM32.9556 27.5815C33.9929 28.1887 35.1426 28.49 36.3932 28.49V27.49C35.3104 27.49 34.3367 27.2313 33.4608 26.7185L32.9556 27.5815ZM55.1925 29.915L54.9474 30.3509L54.9555 30.3552L55.1925 29.915ZM51.6575 26.485L51.2233 26.7331L51.2282 26.7412L51.6575 26.485ZM51.5875 16.405L51.1505 16.1622L51.1491 16.1646L51.5875 16.405ZM54.9475 12.975L55.1964 13.4087L55.2017 13.4056L54.9475 12.975ZM64.5375 12.94L64.2725 13.364L64.2781 13.3674L64.5375 12.94ZM67.5125 16.265L67.0609 16.4797L67.0653 16.4886L67.5125 16.265ZM68.1075 22.25L68.4467 22.6174L68.454 22.6106L68.4611 22.6036L68.1075 22.25ZM53.6525 22.67V22.17H53.0665L53.1588 22.7487L53.6525 22.67ZM55.8575 26.625L55.5345 27.0068L55.5425 27.0133L55.8575 26.625ZM62.5775 27.745L62.7401 28.2179L62.7484 28.2149L62.5775 27.745ZM64.4325 26.8L64.1368 26.3968L64.1325 26.4L64.4325 26.8ZM65.5525 26.415V26.915H65.5664L65.5803 26.9142L65.5525 26.415ZM66.6375 26.765L66.9684 26.39L66.9605 26.3833L66.6375 26.765ZM67.2675 27.92L67.7668 27.8923L67.2675 27.92ZM66.7075 29.005L66.4038 28.6078L66.3966 28.6134L66.7075 29.005ZM63.7325 30.545L63.5744 30.0707L63.5716 30.0716L63.7325 30.545ZM53.6875 19.87L53.1958 19.7792L53.0868 20.37H53.6875V19.87ZM65.3425 19.87V20.37H65.9178L65.8377 19.8004L65.3425 19.87ZM63.6275 16.195L63.2654 16.5399L63.2696 16.5442L63.6275 16.195ZM60.3725 30.64C58.5082 30.64 56.8647 30.2475 55.4296 29.4748L54.9555 30.3552C56.5537 31.2158 58.3636 31.64 60.3725 31.64V30.64ZM55.4377 29.4792C54.019 28.6812 52.9047 27.5992 52.0869 26.2288L51.2282 26.7412C52.137 28.2641 53.3794 29.4688 54.9474 30.3508L55.4377 29.4792ZM52.0917 26.2369C51.2997 24.851 50.8975 23.2583 50.8975 21.445H49.8975C49.8975 23.4117 50.3354 25.179 51.2234 26.7331L52.0917 26.2369ZM50.8975 21.445C50.8975 19.6022 51.2791 18.0074 52.0259 16.6454L51.1491 16.1646C50.3094 17.6959 49.8975 19.4611 49.8975 21.445H50.8975ZM52.0246 16.6478C52.7982 15.2553 53.854 14.1789 55.1964 13.4087L54.6987 12.5413C53.1944 13.4044 52.0102 14.6147 51.1505 16.1622L52.0246 16.6478ZM55.2017 13.4056C56.5394 12.6161 58.083 12.215 59.8475 12.215V11.215C57.9254 11.215 56.2023 11.6539 54.6934 12.5444L55.2017 13.4056ZM59.8475 12.215C61.591 12.215 63.0588 12.6054 64.2725 13.364L64.8025 12.516C63.403 11.6413 61.744 11.215 59.8475 11.215V12.215ZM64.2781 13.3674C65.4986 14.1084 66.4248 15.1416 67.061 16.4797L67.9641 16.0503C67.2469 14.5417 66.1898 13.3582 64.797 12.5126L64.2781 13.3674ZM67.0653 16.4886C67.725 17.8079 68.0625 19.3506 68.0625 21.13H69.0625C69.0625 19.2228 68.7001 17.5221 67.9598 16.0414L67.0653 16.4886ZM68.0625 21.13C68.0625 21.4457 67.9601 21.6903 67.754 21.8964L68.4611 22.6036C68.8616 22.203 69.0625 21.701 69.0625 21.13H68.0625ZM67.7684 21.8826C67.5696 22.0661 67.3112 22.17 66.9525 22.17V23.17C67.5272 23.17 68.0388 22.9939 68.4467 22.6174L67.7684 21.8826ZM66.9525 22.17H53.6525V23.17H66.9525V22.17ZM53.1588 22.7487C53.4338 24.4736 54.2273 25.9006 55.5346 27.0067L56.1805 26.2433C55.0611 25.2961 54.3847 24.0864 54.1463 22.5913L53.1588 22.7487ZM55.5425 27.0133C56.8785 28.0972 58.4983 28.63 60.3725 28.63V27.63C58.7001 27.63 57.31 27.1595 56.1726 26.2367L55.5425 27.0133ZM60.3725 28.63C61.156 28.63 61.9459 28.4908 62.7401 28.2178L62.415 27.2722C61.7159 27.5125 61.0357 27.63 60.3725 27.63V28.63ZM62.7484 28.2149C63.5475 27.9243 64.2142 27.5888 64.7325 27.2L64.1325 26.4C63.7176 26.7112 63.1476 27.0057 62.4067 27.2751L62.7484 28.2149ZM64.7282 27.2032C65.001 27.0032 65.2723 26.915 65.5525 26.915V25.915C65.0394 25.915 64.5641 26.0835 64.1369 26.3968L64.7282 27.2032ZM65.5803 26.9142C65.8809 26.8975 66.1149 26.9778 66.3146 27.1467L66.9605 26.3833C66.5535 26.0389 66.0642 25.8858 65.5248 25.9158L65.5803 26.9142ZM66.3067 27.1399C66.6304 27.4255 66.7542 27.6938 66.7683 27.9477L67.7668 27.8923C67.7342 27.3062 67.438 26.8045 66.9684 26.3901L66.3067 27.1399ZM66.7683 27.9477C66.7806 28.1699 66.6973 28.3834 66.4038 28.6078L67.0113 29.4022C67.5112 29.0199 67.8011 28.5101 67.7668 27.8923L66.7683 27.9477ZM66.3966 28.6134C65.6584 29.1997 64.7217 29.6882 63.5744 30.0707L63.8907 31.0193C65.1233 30.6084 66.17 30.0703 67.0185 29.3966L66.3966 28.6134ZM63.5716 30.0716C62.4492 30.4532 61.3837 30.64 60.3725 30.64V31.64C61.5081 31.64 62.6825 31.4301 63.8935 31.0184L63.5716 30.0716ZM59.8475 14.225C58.0245 14.225 56.5068 14.7326 55.3458 15.7904L56.0193 16.5296C56.9583 15.6741 58.2172 15.225 59.8475 15.225V14.225ZM55.3458 15.7904C54.208 16.827 53.4939 18.165 53.1958 19.7792L54.1792 19.9608C54.4412 18.5417 55.057 17.4063 56.0193 16.5296L55.3458 15.7904ZM53.6875 20.37H65.3425V19.37H53.6875V20.37ZM65.8377 19.8004C65.6148 18.2158 65.0025 16.8883 63.9854 15.8458L63.2696 16.5442C64.1193 17.415 64.6502 18.5376 64.8474 19.9396L65.8377 19.8004ZM63.9896 15.8502C62.9456 14.7539 61.5454 14.225 59.8475 14.225V15.225C61.323 15.225 62.4428 15.6761 63.2655 16.5398L63.9896 15.8502ZM71.0062 30.58L70.6246 30.903L70.638 30.9188L70.6527 30.9336L71.0062 30.58ZM71.1113 28.235L70.7206 27.9229L70.7166 27.928L71.1113 28.235ZM76.5362 21.445L76.9269 21.7571L77.1835 21.4359L76.9179 21.122L76.5362 21.445ZM70.7613 14.62L70.3731 14.9354L70.3796 14.943L70.7613 14.62ZM70.2712 13.43L69.7719 13.4563L69.772 13.4577L70.2712 13.43ZM73.1062 12.45L72.7203 12.7679L72.7228 12.7709L73.1062 12.45ZM78.8463 19.31L78.4628 19.6309L78.8677 20.1148L79.2463 19.61L78.8463 19.31ZM83.9912 12.45L83.6008 12.1377L83.5959 12.1438L83.5912 12.15L83.9912 12.45ZM84.5863 11.995L84.7444 12.4693L84.7673 12.4617L84.7893 12.4519L84.5863 11.995ZM86.4413 12.345L86.0481 12.6539L86.0537 12.661L86.0596 12.668L86.4413 12.345ZM86.7913 13.465L86.2919 13.4387L86.2913 13.4518V13.465H86.7913ZM86.3012 14.76L85.9066 14.453L85.9044 14.4558L86.3012 14.76ZM81.0163 21.655L80.6194 21.3508L80.3758 21.6687L80.6328 21.9759L81.0163 21.655ZM86.5813 28.305L86.9654 27.9849L86.9647 27.9841L86.5813 28.305ZM87.0713 29.565L86.572 29.5373L86.5713 29.5511V29.565H87.0713ZM86.6162 30.58L86.2771 30.2126L86.2698 30.2194L86.2627 30.2264L86.6162 30.58ZM84.8313 30.895L84.9894 30.4207L84.8313 30.895ZM84.2363 30.44L84.6268 30.1276L84.6197 30.1191L84.2363 30.44ZM78.6712 23.79L79.0547 23.4691L78.6612 22.999L78.2798 23.4789L78.6712 23.79ZM73.3863 30.44L73.751 30.782L73.765 30.7671L73.7777 30.7511L73.3863 30.44ZM72.1263 30.5C71.7667 30.5 71.5294 30.3961 71.3598 30.2264L70.6527 30.9336C71.0431 31.3239 71.5525 31.5 72.1263 31.5V30.5ZM71.3879 30.257C71.2123 30.0494 71.1212 29.804 71.1212 29.495H70.1212C70.1212 30.026 70.2869 30.5039 70.6246 30.903L71.3879 30.257ZM71.1212 29.495C71.1212 29.213 71.229 28.898 71.5059 28.542L70.7166 27.928C70.3401 28.412 70.1212 28.937 70.1212 29.495H71.1212ZM71.5019 28.5471L76.9269 21.7571L76.1456 21.1329L70.7206 27.9229L71.5019 28.5471ZM76.9179 21.122L71.1429 14.297L70.3796 14.943L76.1546 21.768L76.9179 21.122ZM71.1493 14.3047C70.9025 14.0009 70.7872 13.7024 70.7705 13.4023L69.772 13.4577C69.802 13.9976 70.0133 14.4924 70.3732 14.9353L71.1493 14.3047ZM70.7706 13.4037C70.7531 13.0714 70.8384 12.8274 71.0029 12.633L70.2396 11.987C69.8908 12.3992 69.7428 12.902 69.7719 13.4563L70.7706 13.4037ZM71.0029 12.633C71.1384 12.4729 71.3639 12.355 71.7763 12.355V11.355C71.1619 11.355 70.6174 11.5404 70.2396 11.987L71.0029 12.633ZM71.7763 12.355C72.2021 12.355 72.4979 12.4978 72.7203 12.7679L73.4922 12.1321C73.0613 11.6089 72.4704 11.355 71.7763 11.355V12.355ZM72.7228 12.7709L78.4628 19.6309L79.2297 18.9891L73.4897 12.1291L72.7228 12.7709ZM79.2463 19.61L84.3913 12.75L83.5912 12.15L78.4463 19.01L79.2463 19.61ZM84.3817 12.7623C84.5286 12.5787 84.6526 12.4999 84.7444 12.4693L84.4281 11.5207C84.0999 11.6301 83.8272 11.8547 83.6008 12.1377L84.3817 12.7623ZM84.7893 12.4519C84.9283 12.3901 85.0913 12.355 85.2862 12.355V11.355C84.9678 11.355 84.6642 11.4132 84.3832 11.5381L84.7893 12.4519ZM85.2862 12.355C85.6861 12.355 85.9084 12.4761 86.0481 12.6539L86.8344 12.0361C86.4608 11.5605 85.9131 11.355 85.2862 11.355V12.355ZM86.0596 12.668C86.2241 12.8624 86.3094 13.1064 86.2919 13.4387L87.2906 13.4913C87.3197 12.937 87.1717 12.4342 86.8229 12.022L86.0596 12.668ZM86.2913 13.465C86.2913 13.7762 86.1791 14.1026 85.9066 14.453L86.6959 15.067C87.0767 14.5774 87.2913 14.0405 87.2913 13.465H86.2913ZM85.9044 14.4558L80.6194 21.3508L81.4131 21.9592L86.6981 15.0642L85.9044 14.4558ZM80.6328 21.9759L86.1978 28.6259L86.9647 27.9841L81.3997 21.3341L80.6328 21.9759ZM86.1971 28.6251C86.4912 28.9779 86.5864 29.2779 86.572 29.5373L87.5705 29.5927C87.6027 29.0121 87.3713 28.4721 86.9654 27.9849L86.1971 28.6251ZM86.5713 29.565C86.5713 29.8158 86.4826 30.0229 86.2771 30.2126L86.9554 30.9474C87.3566 30.5771 87.5713 30.1075 87.5713 29.565H86.5713ZM86.2627 30.2264C86.0931 30.3961 85.8558 30.5 85.4963 30.5V31.5C86.07 31.5 86.5794 31.3239 86.9698 30.9336L86.2627 30.2264ZM85.4963 30.5C85.3137 30.5 85.1457 30.4728 84.9894 30.4207L84.6731 31.3693C84.9368 31.4572 85.2121 31.5 85.4963 31.5V30.5ZM84.9894 30.4207C84.8976 30.3901 84.7736 30.3113 84.6267 30.1277L83.8458 30.7523C84.0722 31.0353 84.3449 31.2599 84.6731 31.3693L84.9894 30.4207ZM84.6197 30.1191L79.0547 23.4691L78.2878 24.1109L83.8528 30.7609L84.6197 30.1191ZM78.2798 23.4789L72.9948 30.1289L73.7777 30.7511L79.0627 24.1011L78.2798 23.4789ZM73.0215 30.098C72.7613 30.3756 72.4713 30.5 72.1263 30.5V31.5C72.7612 31.5 73.3112 31.2511 73.751 30.782L73.0215 30.098ZM92.0287 38.665L91.6751 39.0186L92.0287 38.665ZM91.5387 21.445L91.0387 21.4387V21.445H91.5387ZM96.2637 13.01L96.5148 13.4424L96.5199 13.4394L96.2637 13.01ZM106.099 13.01L105.842 13.4394L105.848 13.4424L106.099 13.01ZM109.529 16.475L109.095 16.7231L109.098 16.7282L109.529 16.475ZM109.634 26.415L109.194 26.1775L109.192 26.1801L109.634 26.415ZM106.449 29.88L106.712 30.3049L106.718 30.3015L106.449 29.88ZM98.0487 30.3L97.8214 30.7455L97.8323 30.7508L98.0487 30.3ZM95.1087 27.955L95.4928 27.6349L94.6087 26.574V27.955H95.1087ZM94.6187 38.665L94.2651 38.3114L94.259 38.3175L94.2531 38.3238L94.6187 38.665ZM104.349 27.15L104.606 27.5788L104.614 27.574L104.349 27.15ZM106.554 24.805L106.117 24.5613L106.115 24.5648L106.554 24.805ZM106.554 18.085L106.113 18.3209L106.12 18.3331L106.554 18.085ZM104.349 15.74L104.084 16.1641L104.091 16.1687L104.349 15.74ZM97.9787 15.74L98.2359 16.1688L98.239 16.1669L97.9787 15.74ZM95.7737 18.085L96.2122 18.3252L96.2146 18.3208L95.7737 18.085ZM95.7737 24.805L95.3328 25.0408L95.3351 25.0452L95.7737 24.805ZM97.9787 27.15L97.7137 27.574L97.7198 27.5778L97.7261 27.5815L97.9787 27.15ZM93.3237 38.69C92.9375 38.69 92.6346 38.5639 92.3822 38.3114L91.6751 39.0186C92.1227 39.4661 92.6832 39.69 93.3237 39.69V38.69ZM92.3822 38.3114C92.1602 38.0894 92.0387 37.8019 92.0387 37.405H91.0387C91.0387 38.0348 91.2439 38.5873 91.6751 39.0186L92.3822 38.3114ZM92.0387 37.405V21.445H91.0387V37.405H92.0387ZM92.0386 21.4513C92.061 19.6851 92.4736 18.1129 93.2678 16.7231L92.3996 16.2269C91.5138 17.7771 91.063 19.5182 91.0387 21.4387L92.0386 21.4513ZM93.2678 16.7231C94.0646 15.3286 95.1452 14.2376 96.5147 13.4424L96.0126 12.5776C94.4888 13.4624 93.2827 14.6814 92.3996 16.2269L93.2678 16.7231ZM96.5199 13.4394C97.8829 12.626 99.4264 12.215 101.164 12.215V11.215C99.261 11.215 97.5378 11.6674 96.0074 12.5806L96.5199 13.4394ZM101.164 12.215C102.926 12.215 104.48 12.6266 105.842 13.4394L106.355 12.5806C104.824 11.6668 103.088 11.215 101.164 11.215V12.215ZM105.848 13.4424C107.217 14.2376 108.298 15.3286 109.095 16.7231L109.963 16.2269C109.08 14.6814 107.874 13.4624 106.35 12.5776L105.848 13.4424ZM109.098 16.7282C109.912 18.1152 110.324 19.6832 110.324 21.445H111.324C111.324 19.5201 110.872 17.7748 109.96 16.2218L109.098 16.7282ZM110.324 21.445C110.324 23.2142 109.944 24.7878 109.194 26.1775L110.074 26.6525C110.91 25.1022 111.324 23.3625 111.324 21.445H110.324ZM109.192 26.1801C108.462 27.5524 107.459 28.6425 106.18 29.4585L106.718 30.3015C108.145 29.3909 109.265 28.1709 110.075 26.6499L109.192 26.1801ZM106.185 29.4552C104.916 30.2426 103.481 30.64 101.864 30.64V31.64C103.653 31.64 105.274 31.1974 106.712 30.3048L106.185 29.4552ZM101.864 30.64C100.557 30.64 99.3599 30.3748 98.265 29.8492L97.8323 30.7508C99.0708 31.3452 100.417 31.64 101.864 31.64V30.64ZM98.2759 29.8546C97.1924 29.3018 96.2659 28.5626 95.4928 27.6349L94.7246 28.2751C95.5848 29.3074 96.6183 30.1315 97.8214 30.7454L98.2759 29.8546ZM94.6087 27.955V37.405H95.6087V27.955H94.6087ZM94.6087 37.405C94.6087 37.8019 94.4872 38.0894 94.2651 38.3114L94.9722 39.0186C95.4035 38.5873 95.6087 38.0348 95.6087 37.405H94.6087ZM94.2531 38.3238C94.033 38.5597 93.7403 38.69 93.3237 38.69V39.69C93.9804 39.69 94.551 39.4703 94.9842 39.0062L94.2531 38.3238ZM101.164 28.49C102.436 28.49 103.588 28.1897 104.606 27.5787L104.091 26.7213C103.243 27.2303 102.272 27.49 101.164 27.49V28.49ZM104.614 27.574C105.621 26.9445 106.415 26.0991 106.992 25.0452L106.115 24.5648C105.619 25.4709 104.943 26.1888 104.084 26.726L104.614 27.574ZM106.99 25.0487C107.595 23.9652 107.894 22.7603 107.894 21.445H106.894C106.894 22.6031 106.632 23.6381 106.117 24.5613L106.99 25.0487ZM107.894 21.445C107.894 20.1083 107.596 18.901 106.988 17.8369L106.12 18.3331C106.632 19.229 106.894 20.2617 106.894 21.445H107.894ZM106.995 17.8492C106.417 16.7699 105.62 15.9199 104.606 15.3113L104.091 16.1687C104.944 16.6801 105.617 17.3934 106.113 18.3208L106.995 17.8492ZM104.614 15.316C103.594 14.679 102.439 14.365 101.164 14.365V15.365C102.268 15.365 103.236 15.6344 104.084 16.164L104.614 15.316ZM101.164 14.365C99.9091 14.365 98.7568 14.6799 97.7184 15.3131L98.239 16.1669C99.1139 15.6334 100.085 15.365 101.164 15.365V14.365ZM97.7214 15.3113C96.707 15.9199 95.9101 16.7699 95.3328 17.8492L96.2146 18.3208C96.7106 17.3934 97.3837 16.6801 98.2359 16.1687L97.7214 15.3113ZM95.3351 17.8448C94.7532 18.9075 94.4687 20.1119 94.4687 21.445H95.4687C95.4687 20.2581 95.7208 19.2225 96.2122 18.3252L95.3351 17.8448ZM94.4687 21.445C94.4687 22.7566 94.754 23.9588 95.3328 25.0408L96.2146 24.5692C95.72 23.6446 95.4687 22.6067 95.4687 21.445H94.4687ZM95.3351 25.0452C95.9123 26.0991 96.7066 26.9445 97.7137 27.574L98.2437 26.726C97.3841 26.1888 96.7084 25.4709 96.2122 24.5648L95.3351 25.0452ZM97.7261 27.5815C98.7635 28.1887 99.9131 28.49 101.164 28.49V27.49C100.081 27.49 99.1072 27.2313 98.2313 26.7185L97.7261 27.5815ZM116.988 30.51L116.623 30.8512L116.634 30.8638L116.647 30.8755L116.988 30.51ZM116.988 12.345L116.647 11.9795L116.641 11.9854L116.634 11.9914L116.988 12.345ZM119.578 30.51L119.932 30.8636L119.938 30.8575L119.944 30.8512L119.578 30.51ZM116.638 8.075L116.276 8.41937L116.284 8.42867L116.294 8.4375L116.638 8.075ZM116.638 4.82L116.284 4.46645L116.638 4.82ZM119.893 4.82L119.531 5.16437L119.539 5.17367L119.549 5.1825L119.893 4.82ZM119.893 8.075L120.247 8.42855L119.893 8.075ZM118.283 30.5C117.886 30.5 117.58 30.3781 117.329 30.1445L116.647 30.8755C117.097 31.2952 117.653 31.5 118.283 31.5V30.5ZM117.354 30.1688C117.12 29.9185 116.998 29.6117 116.998 29.215H115.998C115.998 29.845 116.203 30.4015 116.623 30.8512L117.354 30.1688ZM116.998 29.215V13.64H115.998V29.215H116.998ZM116.998 13.64C116.998 13.2128 117.124 12.9162 117.342 12.6986L116.634 11.9914C116.199 12.4271 115.998 12.9939 115.998 13.64H116.998ZM117.329 12.7105C117.58 12.4769 117.886 12.355 118.283 12.355V11.355C117.653 11.355 117.097 11.5598 116.647 11.9795L117.329 12.7105ZM118.283 12.355C118.71 12.355 119.007 12.4809 119.224 12.6986L119.932 11.9914C119.496 11.5558 118.929 11.355 118.283 11.355V12.355ZM119.224 12.6986C119.442 12.9162 119.568 13.2128 119.568 13.64H120.568C120.568 12.9939 120.367 12.4271 119.932 11.9914L119.224 12.6986ZM119.568 13.64V29.215H120.568V13.64H119.568ZM119.568 29.215C119.568 29.6117 119.446 29.9185 119.213 30.1688L119.944 30.8512C120.363 30.4015 120.568 29.845 120.568 29.215H119.568ZM119.224 30.1564C119.007 30.3741 118.71 30.5 118.283 30.5V31.5C118.929 31.5 119.496 31.2992 119.932 30.8636L119.224 30.1564ZM118.283 8.24C117.784 8.24 117.358 8.06968 116.982 7.7125L116.294 8.4375C116.851 8.96698 117.522 9.24 118.283 9.24V8.24ZM117.001 7.73062C116.643 7.35464 116.473 6.92877 116.473 6.43H115.473C115.473 7.19123 115.746 7.86203 116.276 8.41937L117.001 7.73062ZM116.473 6.43C116.473 5.93189 116.643 5.52261 116.992 5.17355L116.284 4.46645C115.747 5.00406 115.473 5.66811 115.473 6.43H116.473ZM116.992 5.17355C117.369 4.79569 117.793 4.62 118.283 4.62V3.62C117.514 3.62 116.84 3.91098 116.284 4.46645L116.992 5.17355ZM118.283 4.62C118.773 4.62 119.179 4.79463 119.531 5.16437L120.256 4.47562C119.72 3.91203 119.053 3.62 118.283 3.62V4.62ZM119.549 5.1825C119.918 5.53375 120.093 5.94038 120.093 6.43H121.093C121.093 5.65962 120.801 4.99291 120.237 4.4575L119.549 5.1825ZM120.093 6.43C120.093 6.92053 119.917 7.34358 119.539 7.72145L120.247 8.42855C120.802 7.87308 121.093 7.19947 121.093 6.43H120.093ZM119.539 7.72145C119.19 8.0705 118.781 8.24 118.283 8.24V9.24C119.045 9.24 119.709 8.96616 120.247 8.42855L119.539 7.72145ZM126.15 28.235L125.751 27.9333L125.75 27.935L126.15 28.235ZM136.055 15.145L136.453 15.4467L137.06 14.645H136.055V15.145ZM140.395 14.62L140.794 14.921L140.795 14.92L140.395 14.62ZM130.525 27.71L130.125 27.409L129.521 28.21H130.525V27.71ZM127.48 30.5C127.008 30.5 126.747 30.3825 126.599 30.2352C126.452 30.0879 126.335 29.8263 126.335 29.355H125.335C125.335 29.9804 125.491 30.5413 125.892 30.9423C126.293 31.3433 126.854 31.5 127.48 31.5V30.5ZM126.335 29.355C126.335 28.9607 126.423 28.7036 126.55 28.535L125.75 27.935C125.456 28.3264 125.335 28.816 125.335 29.355H126.335ZM126.548 28.5367L136.453 15.4467L135.656 14.8433L125.751 27.9333L126.548 28.5367ZM136.055 14.645H127.13V15.645H136.055V14.645ZM127.13 14.645C126.658 14.645 126.397 14.5275 126.249 14.3802C126.102 14.2329 125.985 13.9713 125.985 13.5H124.985C124.985 14.1254 125.141 14.6863 125.542 15.0873C125.943 15.4883 126.504 15.645 127.13 15.645V14.645ZM125.985 13.5C125.985 13.0287 126.102 12.7671 126.249 12.6198C126.397 12.4725 126.658 12.355 127.13 12.355V11.355C126.504 11.355 125.943 11.5117 125.542 11.9127C125.141 12.3137 124.985 12.8746 124.985 13.5H125.985ZM127.13 12.355H139.065V11.355H127.13V12.355ZM139.065 12.355C139.536 12.355 139.797 12.4725 139.945 12.6198C140.092 12.7671 140.21 13.0287 140.21 13.5H141.21C141.21 12.8746 141.053 12.3137 140.652 11.9127C140.251 11.5117 139.69 11.355 139.065 11.355V12.355ZM140.21 13.5C140.21 13.8943 140.121 14.1514 139.995 14.32L140.795 14.92C141.088 14.5286 141.21 14.039 141.21 13.5H140.21ZM139.995 14.319L130.125 27.409L130.924 28.011L140.794 14.921L139.995 14.319ZM130.525 28.21H139.415V27.21H130.525V28.21ZM139.415 28.21C139.886 28.21 140.147 28.3275 140.295 28.4748C140.442 28.6221 140.56 28.8837 140.56 29.355H141.56C141.56 28.7296 141.403 28.1687 141.002 27.7677C140.601 27.3667 140.04 27.21 139.415 27.21V28.21ZM140.56 29.355C140.56 29.8263 140.442 30.0879 140.295 30.2352C140.147 30.3825 139.886 30.5 139.415 30.5V31.5C140.04 31.5 140.601 31.3433 141.002 30.9423C141.403 30.5413 141.56 29.9804 141.56 29.355H140.56ZM139.415 30.5H127.48V31.5H139.415V30.5ZM145.051 28.235L144.652 27.9333L144.651 27.935L145.051 28.235ZM154.956 15.145L155.355 15.4467L155.961 14.645H154.956V15.145ZM159.296 14.62L159.695 14.921L159.696 14.92L159.296 14.62ZM149.426 27.71L149.027 27.409L148.423 28.21H149.426V27.71ZM146.381 30.5C145.91 30.5 145.648 30.3825 145.501 30.2352C145.353 30.0879 145.236 29.8263 145.236 29.355H144.236C144.236 29.9804 144.393 30.5413 144.794 30.9423C145.195 31.3433 145.756 31.5 146.381 31.5V30.5ZM145.236 29.355C145.236 28.9607 145.324 28.7036 145.451 28.535L144.651 27.935C144.357 28.3264 144.236 28.816 144.236 29.355H145.236ZM145.45 28.5367L155.355 15.4467L154.557 14.8433L144.652 27.9333L145.45 28.5367ZM154.956 14.645H146.031V15.645H154.956V14.645ZM146.031 14.645C145.56 14.645 145.298 14.5275 145.151 14.3802C145.003 14.2329 144.886 13.9713 144.886 13.5H143.886C143.886 14.1254 144.043 14.6863 144.444 15.0873C144.845 15.4883 145.406 15.645 146.031 15.645V14.645ZM144.886 13.5C144.886 13.0287 145.003 12.7671 145.151 12.6198C145.298 12.4725 145.56 12.355 146.031 12.355V11.355C145.406 11.355 144.845 11.5117 144.444 11.9127C144.043 12.3137 143.886 12.8746 143.886 13.5H144.886ZM146.031 12.355H157.966V11.355H146.031V12.355ZM157.966 12.355C158.437 12.355 158.699 12.4725 158.846 12.6198C158.993 12.7671 159.111 13.0287 159.111 13.5H160.111C160.111 12.8746 159.954 12.3137 159.553 11.9127C159.152 11.5117 158.591 11.355 157.966 11.355V12.355ZM159.111 13.5C159.111 13.8943 159.022 14.1514 158.896 14.32L159.696 14.92C159.989 14.5286 160.111 14.039 160.111 13.5H159.111ZM158.897 14.319L149.027 27.409L149.825 28.011L159.695 14.921L158.897 14.319ZM149.426 28.21H158.316V27.21H149.426V28.21ZM158.316 28.21C158.787 28.21 159.049 28.3275 159.196 28.4748C159.343 28.6221 159.461 28.8837 159.461 29.355H160.461C160.461 28.7296 160.304 28.1687 159.903 27.7677C159.502 27.3667 158.941 27.21 158.316 27.21V28.21ZM159.461 29.355C159.461 29.8263 159.343 30.0879 159.196 30.2352C159.049 30.3825 158.787 30.5 158.316 30.5V31.5C158.941 31.5 159.502 31.3433 159.903 30.9423C160.304 30.5413 160.461 29.9804 160.461 29.355H159.461ZM158.316 30.5H146.381V31.5H158.316V30.5ZM167.224 29.88L166.955 30.3016L166.96 30.3048L167.224 29.88ZM164.004 26.415L163.561 26.647L163.565 26.6554L164.004 26.415ZM164.109 16.475L163.678 16.2218L163.675 16.2269L164.109 16.475ZM167.574 13.01L167.825 13.4424L167.827 13.4411L167.574 13.01ZM177.409 13.01L177.152 13.4394L177.158 13.4424L177.409 13.01ZM180.839 16.475L180.405 16.7231L180.408 16.7282L180.839 16.475ZM181.609 30.545L181.962 30.8986L181.609 30.545ZM179.054 30.545L178.688 30.8862L178.7 30.8988L178.713 30.9105L179.054 30.545ZM178.564 27.955H179.064V26.574L178.18 27.6349L178.564 27.955ZM175.589 30.3L175.809 30.749L175.812 30.7472L175.589 30.3ZM175.694 27.15L175.951 27.5788L175.959 27.574L175.694 27.15ZM177.899 24.805L178.337 25.0452L178.34 25.0408L177.899 24.805ZM177.899 18.085L177.458 18.3208L177.46 18.3252L177.899 18.085ZM175.694 15.74L175.429 16.1641L175.436 16.1687L175.694 15.74ZM169.324 15.74L169.581 16.1688L169.584 16.1669L169.324 15.74ZM167.084 18.085L166.647 17.8413L166.645 17.8448L167.084 18.085ZM167.084 24.805L166.643 25.0409L166.65 25.0531L167.084 24.805ZM169.324 27.15L169.059 27.574L169.065 27.5778L169.071 27.5815L169.324 27.15ZM171.809 30.64C170.192 30.64 168.756 30.2426 167.487 29.4552L166.96 30.3048C168.398 31.1974 170.019 31.64 171.809 31.64V30.64ZM167.493 29.4585C166.212 28.6416 165.196 27.5497 164.442 26.1746L163.565 26.6554C164.398 28.1736 165.529 29.3917 166.955 30.3015L167.493 29.4585ZM164.447 26.183C163.718 24.7922 163.349 23.2166 163.349 21.445H162.349C162.349 23.36 162.749 25.0978 163.561 26.647L164.447 26.183ZM163.349 21.445C163.349 19.6807 163.75 18.1109 164.543 16.7231L163.675 16.2269C162.788 17.7791 162.349 19.5226 162.349 21.445H163.349ZM164.54 16.7282C165.36 15.331 166.454 14.2383 167.825 13.4424L167.323 12.5776C165.8 13.4617 164.584 14.679 163.678 16.2218L164.54 16.7282ZM167.827 13.4411C169.215 12.626 170.771 12.215 172.509 12.215V11.215C170.606 11.215 168.872 11.6674 167.32 12.5789L167.827 13.4411ZM172.509 12.215C174.246 12.215 175.789 12.626 177.152 13.4394L177.665 12.5806C176.135 11.6674 174.411 11.215 172.509 11.215V12.215ZM177.158 13.4424C178.527 14.2376 179.608 15.3286 180.405 16.7231L181.273 16.2269C180.39 14.6814 179.184 13.4624 177.66 12.5776L177.158 13.4424ZM180.408 16.7282C181.222 18.1152 181.634 19.6832 181.634 21.445H182.634C182.634 19.5201 182.182 17.7748 181.27 16.2218L180.408 16.7282ZM181.634 21.445V29.25H182.634V21.445H181.634ZM181.634 29.25C181.634 29.6362 181.508 29.939 181.255 30.1914L181.962 30.8986C182.41 30.451 182.634 29.8904 182.634 29.25H181.634ZM181.255 30.1914C181.033 30.4135 180.746 30.535 180.349 30.535V31.535C180.979 31.535 181.531 31.3298 181.962 30.8986L181.255 30.1914ZM180.349 30.535C179.952 30.535 179.645 30.4131 179.395 30.1795L178.713 30.9105C179.162 31.3302 179.719 31.535 180.349 31.535V30.535ZM179.419 30.2038C179.186 29.9535 179.064 29.6467 179.064 29.25H178.064C178.064 29.88 178.269 30.4365 178.688 30.8862L179.419 30.2038ZM179.064 29.25V27.955H178.064V29.25H179.064ZM178.18 27.6349C177.408 28.5607 176.471 29.2996 175.365 29.8528L175.812 30.7472C177.039 30.1337 178.086 29.3093 178.948 28.2751L178.18 27.6349ZM175.369 29.851C174.299 30.3748 173.115 30.64 171.809 30.64V31.64C173.255 31.64 174.591 31.3452 175.809 30.749L175.369 29.851ZM172.509 28.49C173.781 28.49 174.933 28.1897 175.951 27.5787L175.436 26.7213C174.588 27.2303 173.617 27.49 172.509 27.49V28.49ZM175.959 27.574C176.966 26.9445 177.76 26.0991 178.337 25.0452L177.46 24.5648C176.964 25.4709 176.288 26.1888 175.429 26.726L175.959 27.574ZM178.34 25.0408C178.918 23.9588 179.204 22.7566 179.204 21.445H178.204C178.204 22.6067 177.952 23.6446 177.458 24.5692L178.34 25.0408ZM179.204 21.445C179.204 20.1119 178.919 18.9075 178.337 17.8448L177.46 18.3252C177.952 19.2225 178.204 20.2581 178.204 21.445H179.204ZM178.34 17.8492C177.762 16.7699 176.965 15.9199 175.951 15.3113L175.436 16.1687C176.289 16.6801 176.962 17.3934 177.458 18.3208L178.34 17.8492ZM175.959 15.316C174.939 14.679 173.785 14.365 172.509 14.365V15.365C173.613 15.365 174.581 15.6344 175.429 16.164L175.959 15.316ZM172.509 14.365C171.254 14.365 170.102 14.6799 169.063 15.3131L169.584 16.1669C170.459 15.6334 171.43 15.365 172.509 15.365V14.365ZM169.066 15.3113C168.054 15.9187 167.247 16.7661 166.647 17.8413L167.52 18.3287C168.04 17.3972 168.727 16.6813 169.581 16.1687L169.066 15.3113ZM166.645 17.8448C166.063 18.9075 165.779 20.1119 165.779 21.445H166.779C166.779 20.2581 167.031 19.2225 167.522 18.3252L166.645 17.8448ZM165.779 21.445C165.779 22.7566 166.064 23.9588 166.643 25.0408L167.525 24.5692C167.03 23.6446 166.779 22.6067 166.779 21.445H165.779ZM166.65 25.0531C167.249 26.1029 168.053 26.9457 169.059 27.574L169.589 26.726C168.727 26.1876 168.038 25.4671 167.518 24.5569L166.65 25.0531ZM169.071 27.5815C170.108 28.1887 171.258 28.49 172.509 28.49V27.49C171.426 27.49 170.452 27.2313 169.576 26.7185L169.071 27.5815Z" fill="black"/>
<path d="M2.09 57C1.96333 57 1.85567 56.962 1.767 56.886C1.691 56.7973 1.653 56.6897 1.653 56.563V44.156C1.653 44.0167 1.691 43.909 1.767 43.833C1.85567 43.7443 1.96333 43.7 2.09 43.7H3.059C3.19833 43.7 3.306 43.7443 3.382 43.833C3.47067 43.909 3.515 44.0167 3.515 44.156V49.4H10.051V44.156C10.051 44.0167 10.089 43.909 10.165 43.833C10.2537 43.7443 10.3613 43.7 10.488 43.7H11.457C11.5963 43.7 11.704 43.7443 11.78 43.833C11.8687 43.909 11.913 44.0167 11.913 44.156V56.563C11.913 56.6897 11.8687 56.7973 11.78 56.886C11.6913 56.962 11.5837 57 11.457 57H10.488C10.3613 57 10.2537 56.962 10.165 56.886C10.089 56.7973 10.051 56.6897 10.051 56.563V51.11H3.515V56.563C3.515 56.6897 3.47067 56.7973 3.382 56.886C3.29333 56.962 3.18567 57 3.059 57H2.09ZM18.9215 57.19C17.6168 57.19 16.5718 56.791 15.7865 55.993C15.0138 55.1823 14.5895 54.0803 14.5135 52.687L14.4945 52.041L14.5135 51.414C14.6021 50.046 15.0328 48.9567 15.8055 48.146C16.5908 47.3353 17.6231 46.93 18.9025 46.93C20.3085 46.93 21.3978 47.3797 22.1705 48.279C22.9431 49.1657 23.3295 50.369 23.3295 51.889V52.212C23.3295 52.3387 23.2851 52.4463 23.1965 52.535C23.1205 52.611 23.0191 52.649 22.8925 52.649H16.3185V52.82C16.3565 53.6433 16.6035 54.3463 17.0595 54.929C17.5281 55.499 18.1425 55.784 18.9025 55.784C19.4851 55.784 19.9601 55.67 20.3275 55.442C20.7075 55.2013 20.9861 54.9543 21.1635 54.701C21.2775 54.549 21.3598 54.4603 21.4105 54.435C21.4738 54.397 21.5815 54.378 21.7335 54.378H22.6645C22.7785 54.378 22.8735 54.4097 22.9495 54.473C23.0255 54.5363 23.0635 54.625 23.0635 54.739C23.0635 55.0177 22.8861 55.3533 22.5315 55.746C22.1895 56.1387 21.7018 56.4807 21.0685 56.772C20.4478 57.0507 19.7321 57.19 18.9215 57.19ZM21.5245 51.338V51.281C21.5245 50.407 21.2838 49.6977 20.8025 49.153C20.3338 48.5957 19.7005 48.317 18.9025 48.317C18.1045 48.317 17.4711 48.5957 17.0025 49.153C16.5465 49.6977 16.3185 50.407 16.3185 51.281V51.338H21.5245ZM28.6223 57C28.4956 57 28.388 56.962 28.2993 56.886C28.2233 56.7973 28.1853 56.6897 28.1853 56.563V48.64H24.8793C24.7526 48.64 24.645 48.602 24.5563 48.526C24.4803 48.4373 24.4423 48.3297 24.4423 48.203V47.557C24.4423 47.4303 24.4803 47.329 24.5563 47.253C24.645 47.1643 24.7526 47.12 24.8793 47.12H33.2393C33.366 47.12 33.4673 47.1643 33.5433 47.253C33.632 47.329 33.6763 47.4303 33.6763 47.557V48.203C33.6763 48.3297 33.632 48.4373 33.5433 48.526C33.4673 48.602 33.366 48.64 33.2393 48.64H29.9333V56.563C29.9333 56.6897 29.8953 56.7973 29.8193 56.886C29.7433 56.962 29.642 57 29.5153 57H28.6223ZM49.7092 47.12C49.8105 47.12 49.8992 47.158 49.9752 47.234C50.0512 47.2973 50.0892 47.3797 50.0892 47.481V56.582C50.0892 56.7087 50.0512 56.81 49.9752 56.886C49.8992 56.962 49.8042 57 49.6902 57H48.7592C48.6325 57 48.5312 56.962 48.4552 56.886C48.3792 56.81 48.3412 56.7087 48.3412 56.582V50.331L45.9092 54.929C45.8205 55.0937 45.7319 55.2203 45.6432 55.309C45.5672 55.385 45.4469 55.423 45.2822 55.423H44.7882C44.6362 55.423 44.5159 55.385 44.4272 55.309C44.3512 55.233 44.2625 55.1063 44.1612 54.929L41.7482 50.445V56.582C41.7482 56.7087 41.7102 56.81 41.6342 56.886C41.5582 56.962 41.4569 57 41.3302 57H40.3992C40.2725 57 40.1712 56.962 40.0952 56.886C40.0192 56.81 39.9812 56.7087 39.9812 56.582V47.481C39.9812 47.3923 40.0192 47.31 40.0952 47.234C40.1712 47.158 40.2599 47.12 40.3612 47.12H41.3302C41.5202 47.12 41.6785 47.2213 41.8052 47.424L45.0352 53.466L48.2842 47.424C48.3855 47.2213 48.5439 47.12 48.7592 47.12H49.7092ZM56.8844 57.19C55.5797 57.19 54.5347 56.791 53.7494 55.993C52.9767 55.1823 52.5524 54.0803 52.4764 52.687L52.4574 52.041L52.4764 51.414C52.565 50.046 52.9957 48.9567 53.7684 48.146C54.5537 47.3353 55.586 46.93 56.8654 46.93C58.2714 46.93 59.3607 47.3797 60.1334 48.279C60.906 49.1657 61.2924 50.369 61.2924 51.889V52.212C61.2924 52.3387 61.248 52.4463 61.1594 52.535C61.0834 52.611 60.982 52.649 60.8554 52.649H54.2814V52.82C54.3194 53.6433 54.5664 54.3463 55.0224 54.929C55.491 55.499 56.1054 55.784 56.8654 55.784C57.448 55.784 57.923 55.67 58.2904 55.442C58.6704 55.2013 58.949 54.9543 59.1264 54.701C59.2404 54.549 59.3227 54.4603 59.3734 54.435C59.4367 54.397 59.5444 54.378 59.6964 54.378H60.6274C60.7414 54.378 60.8364 54.4097 60.9124 54.473C60.9884 54.5363 61.0264 54.625 61.0264 54.739C61.0264 55.0177 60.849 55.3533 60.4944 55.746C60.1524 56.1387 59.6647 56.4807 59.0314 56.772C58.4107 57.0507 57.695 57.19 56.8844 57.19ZM59.4874 51.338V51.281C59.4874 50.407 59.2467 49.6977 58.7654 49.153C58.2967 48.5957 57.6634 48.317 56.8654 48.317C56.0674 48.317 55.434 48.5957 54.9654 49.153C54.5094 49.6977 54.2814 50.407 54.2814 51.281V51.338H59.4874ZM67.5542 57.19C66.1989 57.19 65.1349 56.81 64.3622 56.05C63.6022 55.2773 63.1969 54.2007 63.1462 52.82L63.1272 52.06L63.1462 51.3C63.1969 49.9193 63.6022 48.849 64.3622 48.089C65.1349 47.3163 66.1989 46.93 67.5542 46.93C68.4662 46.93 69.2389 47.0947 69.8722 47.424C70.5055 47.7533 70.9742 48.1587 71.2782 48.64C71.5949 49.1213 71.7659 49.6027 71.7912 50.084C71.8039 50.2107 71.7659 50.312 71.6772 50.388C71.5885 50.464 71.4809 50.502 71.3542 50.502H70.4422C70.3155 50.502 70.2205 50.4767 70.1572 50.426C70.0939 50.3753 70.0305 50.274 69.9672 50.122C69.7519 49.514 69.4479 49.0833 69.0552 48.83C68.6625 48.564 68.1685 48.431 67.5732 48.431C66.7879 48.431 66.1609 48.678 65.6922 49.172C65.2362 49.6533 64.9892 50.3943 64.9512 51.395L64.9322 52.079L64.9512 52.725C64.9892 53.7383 65.2362 54.4857 65.6922 54.967C66.1482 55.4483 66.7752 55.689 67.5732 55.689C68.1685 55.689 68.6625 55.5623 69.0552 55.309C69.4479 55.043 69.7519 54.606 69.9672 53.998C70.0305 53.846 70.0939 53.7447 70.1572 53.694C70.2205 53.6307 70.3155 53.599 70.4422 53.599H71.3542C71.4809 53.599 71.5885 53.6433 71.6772 53.732C71.7659 53.808 71.8039 53.9093 71.7912 54.036C71.7659 54.5047 71.5949 54.986 71.2782 55.48C70.9742 55.9613 70.5055 56.3667 69.8722 56.696C69.2515 57.0253 68.4789 57.19 67.5542 57.19ZM77.0686 57C76.9419 57 76.8343 56.962 76.7456 56.886C76.6696 56.7973 76.6316 56.6897 76.6316 56.563V48.64H73.3256C73.1989 48.64 73.0913 48.602 73.0026 48.526C72.9266 48.4373 72.8886 48.3297 72.8886 48.203V47.557C72.8886 47.4303 72.9266 47.329 73.0026 47.253C73.0913 47.1643 73.1989 47.12 73.3256 47.12H81.6856C81.8123 47.12 81.9136 47.1643 81.9896 47.253C82.0783 47.329 82.1226 47.4303 82.1226 47.557V48.203C82.1226 48.3297 82.0783 48.4373 81.9896 48.526C81.9136 48.602 81.8123 48.64 81.6856 48.64H78.3796V56.563C78.3796 56.6897 78.3416 56.7973 78.2656 56.886C78.1896 56.962 78.0883 57 77.9616 57H77.0686ZM86.5253 57.19C85.9046 57.19 85.3283 57.0633 84.7963 56.81C84.2643 56.5567 83.8399 56.2147 83.5233 55.784C83.2193 55.3407 83.0673 54.853 83.0673 54.321C83.0673 53.485 83.4093 52.801 84.0933 52.269C84.7899 51.7243 85.7273 51.3697 86.9053 51.205L89.7363 50.806V50.255C89.7363 48.963 88.9953 48.317 87.5133 48.317C86.9559 48.317 86.4999 48.4373 86.1453 48.678C85.7906 48.906 85.5246 49.1783 85.3473 49.495C85.3093 49.609 85.2586 49.6913 85.1953 49.742C85.1446 49.7927 85.0686 49.818 84.9673 49.818H84.1503C84.0363 49.818 83.9349 49.78 83.8463 49.704C83.7703 49.6153 83.7323 49.514 83.7323 49.4C83.7449 49.096 83.8843 48.754 84.1503 48.374C84.4289 47.9813 84.8533 47.6457 85.4233 47.367C85.9933 47.0757 86.6963 46.93 87.5323 46.93C88.9509 46.93 89.9706 47.2657 90.5913 47.937C91.2119 48.5957 91.5223 49.419 91.5223 50.407V56.563C91.5223 56.6897 91.4779 56.7973 91.3893 56.886C91.3133 56.962 91.2119 57 91.0853 57H90.2113C90.0846 57 89.9769 56.962 89.8883 56.886C89.8123 56.7973 89.7743 56.6897 89.7743 56.563V55.746C89.4956 56.1513 89.0903 56.4933 88.5583 56.772C88.0263 57.0507 87.3486 57.19 86.5253 57.19ZM86.9243 55.765C87.7476 55.765 88.4189 55.499 88.9383 54.967C89.4703 54.4223 89.7363 53.6433 89.7363 52.63V52.098L87.5323 52.421C86.6329 52.5477 85.9553 52.763 85.4993 53.067C85.0433 53.3583 84.8153 53.732 84.8153 54.188C84.8153 54.6947 85.0243 55.0873 85.4423 55.366C85.8603 55.632 86.3543 55.765 86.9243 55.765ZM98.3409 59.09C98.2142 59.09 98.1065 59.0457 98.0179 58.957C97.9419 58.881 97.9039 58.7797 97.9039 58.653V55.917C97.9039 55.7903 97.9419 55.689 98.0179 55.613C98.1065 55.5243 98.2142 55.48 98.3409 55.48H98.4359C98.9679 55.4673 99.3669 55.024 99.6329 54.15C99.9115 53.276 100.051 51.889 100.051 49.989V47.557C100.051 47.4303 100.089 47.329 100.165 47.253C100.254 47.1643 100.361 47.12 100.488 47.12H106.549C106.676 47.12 106.777 47.1643 106.853 47.253C106.942 47.329 106.986 47.4303 106.986 47.557V55.442H107.879C108.006 55.442 108.107 55.4863 108.183 55.575C108.272 55.651 108.316 55.7523 108.316 55.879V58.653C108.316 58.7797 108.272 58.881 108.183 58.957C108.107 59.0457 108.006 59.09 107.879 59.09H106.986C106.859 59.09 106.752 59.0457 106.663 58.957C106.587 58.881 106.549 58.7797 106.549 58.653V57H99.6709V58.653C99.6709 58.7797 99.6265 58.881 99.5379 58.957C99.4619 59.0457 99.3605 59.09 99.2339 59.09H98.3409ZM105.219 55.442V48.64H101.78V50.198C101.78 52.7313 101.419 54.492 100.697 55.48L105.219 55.442ZM109.828 57C109.702 57 109.594 56.9557 109.505 56.867C109.417 56.7783 109.372 56.6707 109.372 56.544V55.841C109.372 55.7143 109.41 55.613 109.486 55.537C109.562 55.461 109.657 55.423 109.771 55.423C110.379 55.3977 110.829 54.967 111.12 54.131C111.424 53.2823 111.576 51.9017 111.576 49.989V47.557C111.576 47.4303 111.614 47.329 111.69 47.253C111.779 47.1643 111.887 47.12 112.013 47.12H118.055C118.182 47.12 118.283 47.1643 118.359 47.253C118.448 47.329 118.492 47.4303 118.492 47.557V56.563C118.492 56.6897 118.448 56.7973 118.359 56.886C118.283 56.962 118.182 57 118.055 57H117.143C117.017 57 116.915 56.962 116.839 56.886C116.763 56.7973 116.725 56.6897 116.725 56.563V48.64H113.305V50.198C113.305 52.6173 113.027 54.359 112.469 55.423C111.912 56.4743 111.032 57 109.828 57ZM128.393 47.12C128.52 47.12 128.621 47.1643 128.697 47.253C128.786 47.329 128.83 47.4303 128.83 47.557V56.563C128.83 56.6897 128.786 56.7973 128.697 56.886C128.621 56.962 128.52 57 128.393 57H127.481C127.354 57 127.247 56.962 127.158 56.886C127.082 56.7973 127.044 56.6897 127.044 56.563V53.466H125.011L122.864 56.715C122.813 56.791 122.744 56.8607 122.655 56.924C122.566 56.9747 122.471 57 122.37 57H121.458C121.344 57 121.249 56.962 121.173 56.886C121.097 56.81 121.059 56.7213 121.059 56.62C121.059 56.4933 121.103 56.3793 121.192 56.278L123.32 53.143C122.661 52.915 122.167 52.554 121.838 52.06C121.509 51.5533 121.344 50.9453 121.344 50.236C121.344 49.172 121.654 48.3867 122.275 47.88C122.908 47.3733 123.858 47.12 125.125 47.12H128.393ZM127.063 48.545H125.068C124.346 48.545 123.82 48.6717 123.491 48.925C123.162 49.1783 122.997 49.6153 122.997 50.236C122.997 50.7807 123.155 51.2177 123.472 51.547C123.801 51.8763 124.283 52.041 124.916 52.041H127.063V48.545ZM139.357 57C139.23 57 139.122 56.962 139.034 56.886C138.958 56.7973 138.92 56.6897 138.92 56.563V48.64H135.614C135.487 48.64 135.379 48.602 135.291 48.526C135.215 48.4373 135.177 48.3297 135.177 48.203V47.557C135.177 47.4303 135.215 47.329 135.291 47.253C135.379 47.1643 135.487 47.12 135.614 47.12H143.974C144.1 47.12 144.202 47.1643 144.278 47.253C144.366 47.329 144.411 47.4303 144.411 47.557V48.203C144.411 48.3297 144.366 48.4373 144.278 48.526C144.202 48.602 144.1 48.64 143.974 48.64H140.668V56.563C140.668 56.6897 140.63 56.7973 140.554 56.886C140.478 56.962 140.376 57 140.25 57H139.357ZM150.01 57.19C148.706 57.19 147.661 56.791 146.875 55.993C146.103 55.1823 145.678 54.0803 145.602 52.687L145.583 52.041L145.602 51.414C145.691 50.046 146.122 48.9567 146.894 48.146C147.68 47.3353 148.712 46.93 149.991 46.93C151.397 46.93 152.487 47.3797 153.259 48.279C154.032 49.1657 154.418 50.369 154.418 51.889V52.212C154.418 52.3387 154.374 52.4463 154.285 52.535C154.209 52.611 154.108 52.649 153.981 52.649H147.407V52.82C147.445 53.6433 147.692 54.3463 148.148 54.929C148.617 55.499 149.231 55.784 149.991 55.784C150.574 55.784 151.049 55.67 151.416 55.442C151.796 55.2013 152.075 54.9543 152.252 54.701C152.366 54.549 152.449 54.4603 152.499 54.435C152.563 54.397 152.67 54.378 152.822 54.378H153.753C153.867 54.378 153.962 54.4097 154.038 54.473C154.114 54.5363 154.152 54.625 154.152 54.739C154.152 55.0177 153.975 55.3533 153.62 55.746C153.278 56.1387 152.791 56.4807 152.157 56.772C151.537 57.0507 150.821 57.19 150.01 57.19ZM152.613 51.338V51.281C152.613 50.407 152.373 49.6977 151.891 49.153C151.423 48.5957 150.789 48.317 149.991 48.317C149.193 48.317 148.56 48.5957 148.091 49.153C147.635 49.6977 147.407 50.407 147.407 51.281V51.338H152.613ZM160.68 57.19C159.325 57.19 158.261 56.81 157.488 56.05C156.728 55.2773 156.323 54.2007 156.272 52.82L156.253 52.06L156.272 51.3C156.323 49.9193 156.728 48.849 157.488 48.089C158.261 47.3163 159.325 46.93 160.68 46.93C161.592 46.93 162.365 47.0947 162.998 47.424C163.632 47.7533 164.1 48.1587 164.404 48.64C164.721 49.1213 164.892 49.6027 164.917 50.084C164.93 50.2107 164.892 50.312 164.803 50.388C164.715 50.464 164.607 50.502 164.48 50.502H163.568C163.442 50.502 163.347 50.4767 163.283 50.426C163.22 50.3753 163.157 50.274 163.093 50.122C162.878 49.514 162.574 49.0833 162.181 48.83C161.789 48.564 161.295 48.431 160.699 48.431C159.914 48.431 159.287 48.678 158.818 49.172C158.362 49.6533 158.115 50.3943 158.077 51.395L158.058 52.079L158.077 52.725C158.115 53.7383 158.362 54.4857 158.818 54.967C159.274 55.4483 159.901 55.689 160.699 55.689C161.295 55.689 161.789 55.5623 162.181 55.309C162.574 55.043 162.878 54.606 163.093 53.998C163.157 53.846 163.22 53.7447 163.283 53.694C163.347 53.6307 163.442 53.599 163.568 53.599H164.48C164.607 53.599 164.715 53.6433 164.803 53.732C164.892 53.808 164.93 53.9093 164.917 54.036C164.892 54.5047 164.721 54.986 164.404 55.48C164.1 55.9613 163.632 56.3667 162.998 56.696C162.378 57.0253 161.605 57.19 160.68 57.19ZM170.195 57C170.068 57 169.96 56.962 169.872 56.886C169.796 56.7973 169.758 56.6897 169.758 56.563V48.64H166.452C166.325 48.64 166.217 48.602 166.129 48.526C166.053 48.4373 166.015 48.3297 166.015 48.203V47.557C166.015 47.4303 166.053 47.329 166.129 47.253C166.217 47.1643 166.325 47.12 166.452 47.12H174.812C174.938 47.12 175.04 47.1643 175.116 47.253C175.204 47.329 175.249 47.4303 175.249 47.557V48.203C175.249 48.3297 175.204 48.4373 175.116 48.526C175.04 48.602 174.938 48.64 174.812 48.64H171.506V56.563C171.506 56.6897 171.468 56.7973 171.392 56.886C171.316 56.962 171.214 57 171.088 57H170.195ZM179.651 57.19C179.031 57.19 178.454 57.0633 177.922 56.81C177.39 56.5567 176.966 56.2147 176.649 55.784C176.345 55.3407 176.193 54.853 176.193 54.321C176.193 53.485 176.535 52.801 177.219 52.269C177.916 51.7243 178.853 51.3697 180.031 51.205L182.862 50.806V50.255C182.862 48.963 182.121 48.317 180.639 48.317C180.082 48.317 179.626 48.4373 179.271 48.678C178.917 48.906 178.651 49.1783 178.473 49.495C178.435 49.609 178.385 49.6913 178.321 49.742C178.271 49.7927 178.195 49.818 178.093 49.818H177.276C177.162 49.818 177.061 49.78 176.972 49.704C176.896 49.6153 176.858 49.514 176.858 49.4C176.871 49.096 177.01 48.754 177.276 48.374C177.555 47.9813 177.979 47.6457 178.549 47.367C179.119 47.0757 179.822 46.93 180.658 46.93C182.077 46.93 183.097 47.2657 183.717 47.937C184.338 48.5957 184.648 49.419 184.648 50.407V56.563C184.648 56.6897 184.604 56.7973 184.515 56.886C184.439 56.962 184.338 57 184.211 57H183.337C183.211 57 183.103 56.962 183.014 56.886C182.938 56.7973 182.9 56.6897 182.9 56.563V55.746C182.622 56.1513 182.216 56.4933 181.684 56.772C181.152 57.0507 180.475 57.19 179.651 57.19ZM180.05 55.765C180.874 55.765 181.545 55.499 182.064 54.967C182.596 54.4223 182.862 53.6433 182.862 52.63V52.098L180.658 52.421C179.759 52.5477 179.081 52.763 178.625 53.067C178.169 53.3583 177.941 53.732 177.941 54.188C177.941 54.6947 178.15 55.0873 178.568 55.366C178.986 55.632 179.48 55.765 180.05 55.765Z" fill="black" fill-opacity="0.5"/>
</svg>
