<svg width="50" height="50" viewBox="0 0 50 50" fill="none" xmlns="http://www.w3.org/2000/svg">
<circle cx="25" cy="24.9993" r="25" fill="#FF7C21"/>
<path fill-rule="evenodd" clip-rule="evenodd" d="M20.7616 32.24C21.1523 32.24 21.4699 32.5576 21.4699 32.9483C21.4699 33.3391 21.1523 33.6557 20.7616 33.6557C20.3709 33.6557 20.0542 33.3391 20.0542 32.9483C20.0542 32.5576 20.3709 32.24 20.7616 32.24Z" stroke="white" stroke-width="1.81818" stroke-linecap="round" stroke-linejoin="round"/>
<path fill-rule="evenodd" clip-rule="evenodd" d="M31.1805 32.24C31.5712 32.24 31.8888 32.5576 31.8888 32.9483C31.8888 33.3391 31.5712 33.6557 31.1805 33.6557C30.7898 33.6557 30.4722 33.3391 30.4722 32.9483C30.4722 32.5576 30.7898 32.24 31.1805 32.24Z" stroke="white" stroke-width="1.81818" stroke-linecap="round" stroke-linejoin="round"/>
<path d="M16.4351 16.8972L18.361 17.2306L19.2527 27.8537C19.3249 28.7194 20.048 29.3843 20.9165 29.3843H31.0202C31.8499 29.3843 32.5536 28.775 32.673 27.9528L33.5517 21.8806C33.6601 21.1315 33.0795 20.4611 32.323 20.4611H18.6702" stroke="white" stroke-width="1.81818" stroke-linecap="round" stroke-linejoin="round"/>
<path d="M26.9683 23.8831H29.5359" stroke="white" stroke-width="1.81818" stroke-linecap="round" stroke-linejoin="round"/>
</svg>
