<svg width="29" height="27" viewBox="0 0 29 27" fill="none" xmlns="http://www.w3.org/2000/svg">
<path fill-rule="evenodd" clip-rule="evenodd" d="M15.7319 1.73114L18.9164 8.13727C19.0759 8.46039 19.3839 8.68589 19.7414 8.73814L26.8708 9.76802C27.1596 9.80652 27.4194 9.95777 27.5968 10.1888C27.9296 10.6219 27.8787 11.2351 27.4799 11.6078L22.3127 16.6045C22.0501 16.852 21.9332 17.215 22.0019 17.5684L23.2394 24.6194C23.3261 25.2038 22.9273 25.751 22.3429 25.8459C22.1009 25.883 21.8534 25.8445 21.6334 25.7359L15.2837 22.407C14.9647 22.2338 14.5824 22.2338 14.2634 22.407L7.86693 25.7538C7.33205 26.026 6.67755 25.8239 6.38605 25.3C6.27468 25.0883 6.23618 24.8476 6.27468 24.6125L7.51218 17.5615C7.57405 17.2095 7.45718 16.8479 7.20143 16.599L2.00668 11.6036C1.58318 11.1829 1.58043 10.4981 2.00255 10.0746C2.00393 10.0733 2.0053 10.0705 2.00668 10.0691C2.1813 9.91102 2.3958 9.80514 2.62818 9.76389L9.75893 8.73402C10.1151 8.67764 10.4217 8.45489 10.5839 8.13177L13.7657 1.73114C13.8936 1.47127 14.1204 1.27189 14.3954 1.18114C14.6718 1.08902 14.9743 1.11102 15.2342 1.24164C15.4473 1.34752 15.6219 1.51939 15.7319 1.73114Z" stroke="#C1C1CC" stroke-width="1.5" stroke-linecap="round" stroke-linejoin="round"/>
</svg>
