<svg width="27" height="25" viewBox="0 0 27 25" fill="none" xmlns="http://www.w3.org/2000/svg">
<path fill-rule="evenodd" clip-rule="evenodd" d="M14.4819 0.731142L17.6664 7.13727C17.8259 7.46039 18.1339 7.68589 18.4914 7.73814L25.6208 8.76802C25.9096 8.80652 26.1694 8.95777 26.3468 9.18877C26.6796 9.62189 26.6287 10.2351 26.2299 10.6078L21.0627 15.6045C20.8001 15.852 20.6832 16.215 20.7519 16.5684L21.9894 23.6194C22.0761 24.2038 21.6773 24.751 21.0929 24.8459C20.8509 24.883 20.6034 24.8445 20.3834 24.7359L14.0337 21.407C13.7147 21.2338 13.3324 21.2338 13.0134 21.407L6.61693 24.7538C6.08205 25.026 5.42755 24.8239 5.13605 24.3C5.02468 24.0883 4.98618 23.8476 5.02468 23.6125L6.26218 16.5615C6.32405 16.2095 6.20718 15.8479 5.95143 15.599L0.756677 10.6036C0.333177 10.1829 0.330427 9.49814 0.752552 9.07464C0.753927 9.07327 0.755302 9.07052 0.756677 9.06914C0.931302 8.91102 1.1458 8.80514 1.37818 8.76389L8.50893 7.73402C8.86505 7.67764 9.17168 7.45489 9.33393 7.13177L12.5157 0.731142C12.6436 0.471266 12.8704 0.271891 13.1454 0.181141C13.4218 0.0890165 13.7243 0.111016 13.9842 0.241641C14.1973 0.347516 14.3719 0.519391 14.4819 0.731142Z" fill="#FDEB04"/>
</svg>
