<svg width="20" height="20" viewBox="0 0 20 20" fill="none" xmlns="http://www.w3.org/2000/svg">
<path fill-rule="evenodd" clip-rule="evenodd" d="M12.3559 0.00792976C12.1328 -0.0240483 11.9087 0.0419064 11.7304 0.183809C11.5472 0.32771 11.4326 0.535567 11.4078 0.768407C11.355 1.23908 11.6946 1.66479 12.1646 1.71776C15.4063 2.07951 17.9259 4.60477 18.2904 7.85654C18.3392 8.29224 18.7047 8.62101 19.1409 8.62101C19.1738 8.62101 19.2057 8.61902 19.2385 8.61502C19.4666 8.59004 19.6698 8.47711 19.8132 8.29724C19.9556 8.11736 20.0203 7.89351 19.9944 7.66467C19.5403 3.60746 16.4002 0.45862 12.3559 0.00792976ZM12.4181 3.48976C11.9421 3.40182 11.5049 3.70561 11.4143 4.17029C11.3236 4.63497 11.6284 5.08866 12.0915 5.1796C13.4857 5.45141 14.5623 6.53067 14.8352 7.92971V7.93071C14.9129 8.33343 15.2674 8.62623 15.6757 8.62623C15.7305 8.62623 15.7853 8.62124 15.8411 8.61124C16.3041 8.51831 16.6089 8.06562 16.5183 7.59994C16.1109 5.51037 14.5026 3.89648 12.4181 3.48976ZM14.0001 13.0912C14.4515 12.8309 14.9615 12.5369 15.6047 12.6737C16.1873 12.7966 18.1731 14.4085 18.7169 14.9671C19.0734 15.3329 19.2716 15.7106 19.3025 16.0883C19.3562 17.5703 17.3425 19.2622 16.976 19.473C16.489 19.8238 15.9224 20.0007 15.286 20.0007C14.6357 20.0007 13.9106 19.8158 13.1199 19.447C8.82956 17.6563 2.27553 11.2317 0.542661 6.9746C-0.17638 5.38968 -0.18136 4.08258 0.53071 3.10026C0.814542 2.63957 2.43288 0.713895 3.88192 0.774853C4.26733 0.80783 4.64179 1.00569 5.00928 1.36545C5.56499 1.91007 7.13653 3.90171 7.25803 4.4863C7.39247 5.13586 7.09769 5.6525 6.83576 6.10619C6.7799 6.20372 6.70463 6.31946 6.62217 6.44626C6.3092 6.92748 5.89264 7.568 6.04004 7.97691C7.09669 10.5711 9.53764 12.8346 12.133 13.8978C12.5343 14.0437 13.1745 13.6242 13.6542 13.3098C13.7791 13.2279 13.8932 13.1532 13.9893 13.0974L14.0001 13.0912Z" fill="#FF7C21"/>
</svg>
